# xmcd CD database file
#
# Track frame offsets:
#	150
#	17884
#	30367
#	57473
#	72380
#	92200
#	129428
#	144900
#	160067
#	181324
#	201675
#	224897
#	249730
#	266816
#
# Disc length: 3924 seconds
#
# Revision: 0
# Processed by: cddbd v1.5.2PL0 Copyright (c) Steve Scherf et al.
# Submitted via: CDex 1.51
#
DISCID=dc0f520e
DTITLE=Blue FOs - Jewel City Blues
DYEAR=1900
DGENRE=Blues
TTITLE0=Joey and Harry
TTITLE1=I Got a Plan
TTITLE2=Blue Shadow
TTITLE3=Credit Bone
TTITLE4=Mess O' Blues
TTITLE5=Jewel City Blues
TTITLE6=Done This Before
TTITLE7=What's the Matter Now?
TTITLE8=Legend of Hoop
TTITLE9=Holman Street
TTITLE10=Tinker Child
TTITLE11=Caldonia
TTITLE12=Strike Me Blind
TTITLE13=Mind Your Own Business
EXTD=
EXTT0=
EXTT1=
EXTT2=
EXTT3=
EXTT4=
EXTT5=
EXTT6=
EXTT7=
EXTT8=
EXTT9=
EXTT10=
EXTT11=
EXTT12=
EXTT13=
PLAYORDER=
